{
  "accessors": [
    {
      "bufferView": 2,
      "componentType": 5126,
      "count": 2767,
      "max": [
        0.86825078725814819,
        0.60754477977752686,
        0.88834744691848755
      ],
      "min": [
        -0.8738519549369812,
        -0.69082838296890259,
        -0.88811099529266357
      ],
      "type": "VEC3"
    },
    {
      "bufferView": 2,
      "byteOffset": 33204,
      "componentType": 5126,
      "count": 2767,
      "max": [
        0.99823647737503052,
        1,
        0.99816668033599854
      ],
      "min": [
        -0.99823647737503052,
        -0.99996101856231689,
        -0.99816668033599854
      ],
      "type": "VEC3"
    },
    {
      "bufferView": 1,
      "componentType": 5126,
      "count": 2767,
      "max": [
        0.83929824829101562,
        0.99749910831451416
      ],
      "min": [
        0.00066669040825217962,
        0.4665733277797699
      ],
      "type": "VEC2"
    },
    {
      "bufferView": 0,
      "componentType": 5125,
      "count": 11904,
      "max": [
        2766
      ],
      "min": [
        0
      ],
      "type": "SCALAR"
    },
    {
      "bufferView": 2,
      "byteOffset": 66408,
      "componentType": 5126,
      "count": 5534,
      "max": [
        0.88506174087524414,
        0.62054735422134399,
        0.90644407272338867
      ],
      "min": [
        -0.88946908712387085,
        -0.70199447870254517,
        -0.90308231115341187
      ],
      "type": "VEC3"
    },
    {
      "bufferView": 2,
      "byteOffset": 132816,
      "componentType": 5126,
      "count": 5534,
      "max": [
        0.99834215641021729,
        1,
        0.99834215641021729
      ],
      "min": [
        -0.99834215641021729,
        -1,
        -0.99834215641021729
      ],
      "type": "VEC3"
    },
    {
      "bufferView": 1,
      "byteOffset": 22136,
      "componentType": 5126,
      "count": 5534,
      "max": [
        0.83929824829101562,
        0.99749910831451416
      ],
      "min": [
        0.00066669040825217962,
        0.4665733277797699
      ],
      "type": "VEC2"
    },
    {
      "bufferView": 0,
      "byteOffset": 47616,
      "componentType": 5125,
      "count": 23808,
      "max": [
        5533
      ],
      "min": [
        0
      ],
      "type": "SCALAR"
    },
    {
      "bufferView": 2,
      "byteOffset": 199224,
      "componentType": 5126,
      "count": 7936,
      "max": [
        15.97721004486084,
        3.5459005832672119,
        4.847501277923584
      ],
      "min": [
        -0.58003759384155273,
        -0.76435703039169312,
        -37.655921936035156
      ],
      "type": "VEC3"
    },
    {
      "bufferView": 2,
      "byteOffset": 294456,
      "componentType": 5126,
      "count": 7936,
      "max": [
        0.99912816286087036,
        0.999991774559021,
        0.96148514747619629
      ],
      "min": [
        -0.99784374237060547,
        -0.9999966025352478,
        -0.94391769170761108
      ],
      "type": "VEC3"
    },
    {
      "bufferView": 1,
      "byteOffset": 66408,
      "componentType": 5126,
      "count": 7936,
      "max": [
        0.98517024517059326,
        0.52807599306106567
      ],
      "min": [
        0.00017277488950639963,
        0.00017277488950639963
      ],
      "type": "VEC2"
    },
    {
      "bufferView": 0,
      "byteOffset": 142848,
      "componentType": 5125,
      "count": 17280,
      "max": [
        7935
      ],
      "min": [
        0
      ],
      "type": "SCALAR"
    },
    {
      "bufferView": 2,
      "byteOffset": 389688,
      "componentType": 5126,
      "count": 15872,
      "max": [
        2.9988236427307129,
        -0.052384376525878906,
        -1.0595563650131226
      ],
      "min": [
        1.7556930780410767,
        -0.62599903345108032,
        -1.4319791793823242
      ],
      "type": "VEC3"
    },
    {
      "bufferView": 2,
      "byteOffset": 580152,
      "componentType": 5126,
      "count": 15872,
      "max": [
        0.99881988763809204,
        0.99990880489349365,
        0.99897408485412598
      ],
      "min": [
        -0.99881982803344727,
        -0.9999091625213623,
        -0.9989737868309021
      ],
      "type": "VEC3"
    },
    {
      "bufferView": 1,
      "byteOffset": 129896,
      "componentType": 5126,
      "count": 15872,
      "max": [
        1.0000003576278687,
        1.0000001192092896
      ],
      "min": [
        0,
        0
      ],
      "type": "VEC2"
    },
    {
      "bufferView": 0,
      "byteOffset": 211968,
      "componentType": 5125,
      "count": 23808,
      "max": [
        15871
      ],
      "min": [
        0
      ],
      "type": "SCALAR"
    },
    {
      "bufferView": 2,
      "byteOffset": 770616,
      "componentType": 5126,
      "count": 8358,
      "max": [
        0.84228205680847168,
        -0.7050931453704834,
        1.0301568508148193
      ],
      "min": [
        -0.85797744989395142,
        -2.8802649974822998,
        -0.91397935152053833
      ],
      "type": "VEC3"
    },
    {
      "bufferView": 2,
      "byteOffset": 870912,
      "componentType": 5126,
      "count": 8358,
      "max": [
        0.99861776828765869,
        1,
        0.9999995231628418
      ],
      "min": [
        -0.99922072887420654,
        -1,
        -0.99867278337478638
      ],
      "type": "VEC3"
    },
    {
      "bufferView": 1,
      "byteOffset": 256872,
      "componentType": 5126,
      "count": 8358,
      "max": [
        0.83929824829101562,
        0.99749910831451416
      ],
      "min": [
        0.00066669040825217962,
        0.4665733277797699
      ],
      "type": "VEC2"
    },
    {
      "bufferView": 0,
      "byteOffset": 307200,
      "componentType": 5125,
      "count": 35712,
      "max": [
        8357
      ],
      "min": [
        0
      ],
      "type": "SCALAR"
    },
    {
      "bufferView": 2,
      "byteOffset": 971208,
      "componentType": 5126,
      "count": 15872,
      "max": [
        2.0106773376464844,
        -1.776267409324646,
        -1.1339694261550903
      ],
      "min": [
        1.6835256814956665,
        -2.4811573028564453,
        -1.5333473682403564
      ],
      "type": "VEC3"
    },
    {
      "bufferView": 2,
      "byteOffset": 1161672,
      "componentType": 5126,
      "count": 15872,
      "max": [
        0.99820011854171753,
        0.98181194067001343,
        0.9998210072517395
      ],
      "min": [
        -0.99820047616958618,
        -0.98180174827575684,
        -0.9998210072517395
      ],
      "type": "VEC3"
    },
    {
      "bufferView": 1,
      "byteOffset": 323736,
      "componentType": 5126,
      "count": 15872,
      "max": [
        1.0000003576278687,
        1.0000001192092896
      ],
      "min": [
        0,
        0
      ],
      "type": "VEC2"
    },
    {
      "bufferView": 0,
      "byteOffset": 450048,
      "componentType": 5125,
      "count": 23808,
      "max": [
        15871
      ],
      "min": [
        0
      ],
      "type": "SCALAR"
    }
  ],
  "asset": {
    "extras": {
      "author": "tommdraws (https://sketchfab.com/tommdraws)",
      "license": "CC-BY-4.0 (http://creativecommons.org/licenses/by/4.0/)",
      "source": "https://sketchfab.com/3d-models/rimuru-slime-612ff2c805114744b66d3c29c7942371",
      "title": "Rimuru Slime"
    },
    "generator": "Sketchfab-7.71.0",
    "version": "2.0"
  },
  "bufferViews": [
    {
      "buffer": 0,
      "byteLength": 545280,
      "byteOffset": 0,
      "name": "floatBufferViews",
      "target": 34963
    },
    {
      "buffer": 0,
      "byteLength": 450712,
      "byteOffset": 545280,
      "byteStride": 8,
      "name": "floatBufferViews",
      "target": 34962
    },
    {
      "buffer": 0,
      "byteLength": 1352136,
      "byteOffset": 995992,
      "byteStride": 12,
      "name": "floatBufferViews",
      "target": 34962
    }
  ],
  "buffers": [
    {
      "byteLength": 2348128,
      "uri": "scene.bin"
    }
  ],
  "extensionsUsed": [
    "KHR_materials_unlit"
  ],
  "images": [
    {
      "uri": "textures/Material.001_baseColor.png"
    }
  ],
  "materials": [
    {
      "alphaMode": "BLEND",
      "doubleSided": false,
      "emissiveFactor": [
        0,
        0,
        0
      ],
      "extensions": {
        "KHR_materials_unlit": {}
      },
      "name": "Material.001",
      "pbrMetallicRoughness": {
        "baseColorFactor": [
          1,
          1,
          1,
          1
        ],
        "baseColorTexture": {
          "index": 0,
          "texCoord": 0
        },
        "metallicFactor": 0,
        "roughnessFactor": 1
      }
    },
    {
      "doubleSided": false,
      "emissiveFactor": [
        0.396791,
        0.46146900000000002,
        0.48780600000000002
      ],
      "extensions": {
        "KHR_materials_unlit": {}
      },
      "name": "Material.008",
      "pbrMetallicRoughness": {
        "baseColorFactor": [
          1,
          1,
          1,
          1
        ],
        "metallicFactor": 0,
        "roughnessFactor": 1
      }
    },
    {
      "doubleSided": true,
      "emissiveFactor": [
        0.59720200000000001,
        0.25558600000000004,
        0.47029300000000029
      ],
      "extensions": {
        "KHR_materials_unlit": {}
      },
      "name": "Material.005",
      "pbrMetallicRoughness": {
        "baseColorFactor": [
          0.75574915719453606,
          0.01513949093128852,
          0.81036995104363518,
          1
        ],
        "metallicFactor": 0,
        "roughnessFactor": 1
      }
    },
    {
      "doubleSided": true,
      "emissiveFactor": [
        0,
        0,
        0
      ],
      "extensions": {
        "KHR_materials_unlit": {}
      },
      "name": "Material.002",
      "pbrMetallicRoughness": {
        "baseColorFactor": [
          0.194440258046013,
          0.52758940340821292,
          0.81930244403148555,
          1
        ],
        "metallicFactor": 0,
        "roughnessFactor": 1
      }
    },
    {
      "doubleSided": true,
      "emissiveFactor": [
        0.81519799999999998,
        0.95037099999999997,
        1
      ],
      "extensions": {
        "KHR_materials_unlit": {}
      },
      "name": "Material.007",
      "pbrMetallicRoughness": {
        "baseColorFactor": [
          1,
          1,
          1,
          1
        ],
        "metallicFactor": 0,
        "roughnessFactor": 1
      }
    }
  ],
  "meshes": [
    {
      "primitives": [
        {
          "attributes": {
            "NORMAL": 1,
            "POSITION": 0,
            "TEXCOORD_0": 2
          },
          "indices": 3,
          "material": 1,
          "mode": 4
        }
      ]
    },
    {
      "primitives": [
        {
          "attributes": {
            "NORMAL": 5,
            "POSITION": 4,
            "TEXCOORD_0": 6
          },
          "indices": 7,
          "material": 0,
          "mode": 4
        }
      ]
    },
    {
      "primitives": [
        {
          "attributes": {
            "NORMAL": 9,
            "POSITION": 8,
            "TEXCOORD_0": 10
          },
          "indices": 11,
          "material": 0,
          "mode": 4
        }
      ]
    },
    {
      "primitives": [
        {
          "attributes": {
            "NORMAL": 13,
            "POSITION": 12,
            "TEXCOORD_0": 14
          },
          "indices": 15,
          "material": 2,
          "mode": 4
        }
      ]
    },
    {
      "primitives": [
        {
          "attributes": {
            "NORMAL": 17,
            "POSITION": 16,
            "TEXCOORD_0": 18
          },
          "indices": 19,
          "material": 3,
          "mode": 4
        }
      ]
    },
    {
      "primitives": [
        {
          "attributes": {
            "NORMAL": 21,
            "POSITION": 20,
            "TEXCOORD_0": 22
          },
          "indices": 23,
          "material": 4,
          "mode": 4
        }
      ]
    }
  ],
  "nodes": [
    {
      "children": [
        1
      ],
      "name": "RootNode (gltf orientation matrix)",
      "rotation": [
        -0.70710678118654746,
        -0,
        -0,
        0.70710678118654757
      ]
    },
    {
      "children": [
        2
      ],
      "name": "RootNode (model correction matrix)"
    },
    {
      "children": [
        3
      ],
      "name": "root"
    },
    {
      "children": [
        4,
        7,
        9,
        11,
        13
      ],
      "matrix": [
        1,
        0,
        0,
        0,
        0,
        2.2204460492503131e-16,
        1,
        0,
        0,
        -1,
        2.2204460492503131e-16,
        0,
        0,
        0,
        0,
        1
      ],
      "name": "GLTF_SceneRootNode"
    },
    {
      "children": [
        5,
        6
      ],
      "matrix": [
        0.20817278833253505,
        0.00086119393531312221,
        -0.97809168718625938,
        0,
        -0.00063826438067911555,
        0.99999951906629325,
        0.00074463800772281256,
        0,
        0.97809185806673493,
        0.00046926771460328729,
        0.20817323788463804,
        0,
        0.64343041181564331,
        0.011434371583163738,
        0.7241140604019165,
        1
      ],
      "name": "Sphere_1"
    },
    {
      "mesh": 0,
      "name": ""
    },
    {
      "mesh": 1,
      "name": ""
    },
    {
      "children": [
        8
      ],
      "matrix": [
        0.0074487301649415489,
        0.016286039545108211,
        -0.0053543625747374812,
        0,
        -0.055955370001923681,
        -0.0216927580566246,
        -0.14382394864512957,
        0,
        -0.0069797971438109079,
        0.0038921232656971535,
        0.0021284789235366903,
        0,
        -0.16868472099304199,
        -0.0012157633900642395,
        0.85045987367630005,
        1
      ],
      "name": "Sphere.001_2"
    },
    {
      "mesh": 2,
      "name": ""
    },
    {
      "children": [
        10
      ],
      "matrix": [
        -0.10717687983903489,
        0.035577522538567885,
        0.84910802953346076,
        0,
        -0.0016060196426226213,
        -0.24935081372327575,
        0.010245052123430404,
        0,
        0.58927591467833973,
        -0.00073809138987887817,
        0.074411042134759062,
        0,
        0.97667145729064941,
        -0.26030853390693665,
        -1.332705020904541,
        1
      ],
      "name": "Sphere.002_4"
    },
    {
      "mesh": 3,
      "name": ""
    },
    {
      "children": [
        12
      ],
      "matrix": [
        0.20340374851117196,
        0.0008414648045063424,
        -0.95568454049576923,
        0,
        -0.00024019800785398475,
        0.37632977744911139,
        0.00028022959049833144,
        0,
        0.77175846690336225,
        0.00037027333271673894,
        0.16425804753932982,
        0,
        0.62978106737136841,
        0.45004639029502869,
        0.7190253734588623,
        1
      ],
      "name": "Sphere.003_5"
    },
    {
      "mesh": 4,
      "name": ""
    },
    {
      "children": [
        14
      ],
      "matrix": [
        -0.10717687983903489,
        0.035577522538567885,
        0.84910802953346076,
        0,
        -0.0016060196426226213,
        -0.24935081372327575,
        0.010245052123430404,
        0,
        0.58927591467833973,
        -0.00073809138987887817,
        0.074411042134759062,
        0,
        1.2693716287612915,
        -0.37062811851501465,
        -1.2856044769287109,
        1
      ],
      "name": "Sphere.004_6"
    },
    {
      "mesh": 5,
      "name": ""
    }
  ],
  "samplers": [
    {
      "magFilter": 9729,
      "minFilter": 9987,
      "wrapS": 10497,
      "wrapT": 10497
    }
  ],
  "scene": 0,
  "scenes": [
    {
      "name": "OSG_Scene",
      "nodes": [
        0
      ]
    }
  ],
  "textures": [
    {
      "sampler": 0,
      "source": 0
    }
  ]
}

